<svg version="1.2" xmlns="http://www.w3.org/2000/svg" viewBox="0 0 860 164" width="860" height="164">
	<style>
		.s0 { fill: #99cccb;stroke: #99cccb;stroke-miterlimit:10;stroke-width: 2 } 
		.s1 { fill: #1f96a6;stroke: #1f96a6;stroke-miterlimit:10;stroke-width: 2 } 
	</style>
	<g id="Capa 1">
		<g id="&lt;Group&gt;">
			<path id="&lt;Compound Path&gt;" class="s0" d="m356.78 147.02q-11.42-5.44-17.77-15.09-6.36-9.65-6.36-22.06v-71.54q0-3.52 2.3-5.74 2.29-2.22 5.67-2.22 3.52 0 5.74 2.22 2.22 2.22 2.22 5.74v71.54q0 8.12 4.37 14.55c10.81 15.94 37.68 16.2 48.29 0q4.21-6.43 4.21-14.55v-71.54q0-3.52 2.3-5.74 2.3-2.22 5.67-2.22 3.37 0 5.59 2.22 2.22 2.22 2.22 5.74v71.54q0 12.26-6.2 21.98-6.21 9.73-17.31 15.17c-7.41 3.62-10.7 5.44-20.09 5.44-9.7 0-13.25-1.82-20.85-5.44z"/>
			<path id="&lt;Compound Path&gt;" class="s0" d="m449.05 147.71q-2.3-2.3-2.3-5.67v-103.71q0-3.52 2.3-5.74 2.3-2.22 5.67-2.22 3.52 0 5.74 2.22 2.22 2.22 2.22 5.74v103.71q0 3.37-2.22 5.67-2.22 2.3-5.74 2.3-3.37 0-5.67-2.3z"/>
			<path id="&lt;Path&gt;" class="s0" d="m310.24 90.11c0-6.85-0.89-13.25-2.62-19.25-3.87 3.9-8.48 7.07-13.61 9.26q0.9 4.81 0.91 9.99-0.01 4.09-0.56 7.93c-0.57 13.49-9.02 25.42-20.48 32.15l0.05 0.05q-10.72 6.9-24.51 6.9-13.02 0-23.43-6.21-10.42-6.2-16.24-16.92-5.82-10.72-5.82-23.9 0-13.17 5.82-23.9 5.82-10.72 16.16-16.85 4.02-2.37 8.47-3.83-0.29-2.44-0.3-4.96c0-3.58 0.48-7.04 1.3-10.37q-9.46 1.89-17.59 6.45-13.86 7.81-21.52 21.75-7.66 13.94-7.66 31.71 0 17.77 7.66 31.79 7.66 14.01 21.52 21.83 13.86 7.81 31.63 7.81 20.22 0 35.54-10.27l6.28 6.28q2.76 2.46 5.52 2.46 2.91 0 5.36-2.46 2.3-2.29 2.3-5.36 0-2.9-2.3-5.36l-5.82-5.82q6.74-7.96 10.34-18.38 3.6-10.42 3.6-22.52z"/>
			<g id="&lt;Group&gt;">
				<path id="&lt;Compound Path&gt;" class="s0" d="m275.06 65.68q-1.71-1.7-1.71-4.29v-15.76h-15.75q-2.59 0-4.29-1.76-1.71-1.76-1.71-4.35 0-2.59 1.71-4.29 1.7-1.71 4.29-1.71h15.75v-15.76q0-2.46 1.83-4.23 1.82-1.76 4.17-1.76 2.59 0 4.29 1.7 1.71 1.71 1.71 4.29v15.76h15.75q2.47 0 4.29 1.76 1.83 1.77 1.83 4.36 0 2.46-1.83 4.23-1.82 1.76-4.29 1.76h-15.75v15.76q0 2.59-1.71 4.29-1.7 1.7-4.29 1.7-2.59 0-4.29-1.7z"/>
			</g>
			<path id="&lt;Compound Path&gt;" fill-rule="evenodd" class="s0" d="m729.27 147.09q-2.3-2.3-2.3-5.67v-103.71q0-3.52 2.3-5.74 2.29-2.22 5.67-2.22h27.72q17.31 0 30.79 7.66 13.48 7.66 20.99 21.21 7.5 13.56 7.5 30.87 0 17.31-7.5 30.94-7.51 13.64-20.99 21.3-13.48 7.66-30.79 7.65h-27.72q-3.38 0-5.67-2.29zm33.39-11.8q12.72 0 22.75-5.82 10.03-5.82 15.62-16.31 5.6-10.49 5.6-23.67 0-13.17-5.6-23.59-5.59-10.41-15.62-16.24-10.03-5.82-22.75-5.82h-19.76v91.45z"/>
			<path id="&lt;Compound Path&gt;" class="s0" d="m40.35 147.2q-2.3-2.3-2.29-5.67v-103.7q-0.01-3.53 2.29-5.75 2.3-2.22 5.67-2.22 3.52 0 5.74 2.22 2.22 2.22 2.23 5.75v103.7q-0.01 3.37-2.23 5.67-2.22 2.3-5.74 2.3-3.37 0-5.67-2.3z"/>
			<path id="&lt;Compound Path&gt;" class="s0" d="m76.65 147.28q-2.22-2.22-2.22-5.75v-103.7q0-3.53 2.22-5.75 2.22-2.22 5.59-2.22 1.69 0 3.37 0.84 1.69 0.85 2.76 2.07l69.61 88.85v-83.79q0-3.53 2.3-5.75 2.3-2.22 5.67-2.22 3.36 0 5.59 2.22 2.22 2.22 2.22 5.75v103.7q0 3.53-2.22 5.75-2.23 2.22-5.59 2.22-1.69 0-3.45-0.69-1.76-0.69-2.68-2.07l-69.61-88.85v83.64q0 3.37-2.22 5.67-2.23 2.3-5.75 2.3-3.37 0-5.59-2.22z"/>
			<path id="&lt;Compound Path&gt;" class="s0" d="m604.7 32.05q2.3 2.3 2.3 5.66v103.71q0 3.37-2.38 5.67-2.37 2.29-5.59 2.29-3.37 0-5.67-2.29-2.29-2.3-2.29-5.67v-76.13l-37.08 75.52q-2.6 3.98-6.89 3.98-5.05 0-7.35-4.75l-36.61-73.37v74.75q0 3.37-2.3 5.67-2.3 2.29-5.67 2.29-3.37 0-5.67-2.29-2.29-2.3-2.29-5.67v-103.71q0-3.36 2.29-5.66 2.3-2.3 5.67-2.3 4.6 0 7.05 4.29l45.49 91.14 44.28-91.14q2.44-4.29 7.04-4.29 3.37 0 5.67 2.3z"/>
			<path id="&lt;Compound Path&gt;" class="s0" d="m629.71 147.09q-2.3-2.3-2.3-5.67v-103.71q0-3.52 2.3-5.74 2.29-2.22 5.66-2.22h69.24q3.53 0 5.67 2.07 2.15 2.07 2.15 5.43 0 3.22-2.15 5.21-2.14 1.99-5.67 1.99h-61.27v37.23h43.96q3.37 0 5.6 2.07 2.22 2.06 2.22 5.28 0 3.22-2.22 5.28-2.23 2.07-5.6 2.07h-43.96v38.3h61.27q3.53 0 5.67 1.99 2.15 1.99 2.15 5.21 0 3.37-2.15 5.44-2.14 2.06-5.67 2.06h-69.24q-3.37 0-5.66-2.29z"/>
			<path id="&lt;Compound Path&gt;" class="s0" d="m356.78 146.79q-11.42-5.43-17.77-15.09-6.36-9.65-6.36-22.05v-71.54q0-3.52 2.3-5.75 2.29-2.22 5.67-2.22 3.52 0 5.74 2.22 2.22 2.23 2.22 5.75v71.54q0 8.12 4.37 14.55c10.81 15.93 37.68 16.2 48.29 0q4.21-6.43 4.21-14.55v-71.54q0-3.52 2.3-5.75 2.3-2.22 5.67-2.22 3.37 0 5.59 2.22 2.22 2.23 2.22 5.75v71.54q0 12.25-6.2 21.98-6.21 9.73-17.31 15.16c-7.41 3.63-10.7 5.44-20.09 5.44-9.7 0-13.25-1.81-20.85-5.44z"/>
			<path id="&lt;Compound Path&gt;" class="s0" d="m449.05 147.48q-2.3-2.29-2.3-5.67v-103.7q0-3.52 2.3-5.75 2.3-2.22 5.67-2.22 3.52 0 5.74 2.22 2.22 2.23 2.22 5.75v103.7q0 3.38-2.22 5.67-2.22 2.3-5.74 2.3-3.37 0-5.67-2.3z"/>
			<path id="&lt;Path&gt;" class="s1" d="m310.24 89.88c0-6.84-0.89-13.25-2.62-19.24-3.87 3.9-8.48 7.06-13.61 9.26q0.9 4.8 0.91 9.98-0.01 4.1-0.56 7.94c-0.57 13.49-9.02 25.42-20.48 32.14l0.05 0.06q-10.72 6.89-24.51 6.89-13.02 0-23.43-6.2-10.42-6.2-16.24-16.93-5.82-10.72-5.82-23.9 0-13.17 5.82-23.89 5.82-10.72 16.16-16.85 4.02-2.38 8.47-3.83-0.29-2.45-0.3-4.97c0-3.58 0.48-7.04 1.3-10.36q-9.46 1.88-17.59 6.44-13.86 7.82-21.52 21.76-7.66 13.94-7.66 31.7 0 17.77 7.66 31.79 7.66 14.02 21.52 21.83 13.86 7.81 31.63 7.81 20.22 0 35.54-10.26l6.28 6.28q2.76 2.45 5.52 2.45 2.91 0 5.36-2.45 2.3-2.3 2.3-5.36 0-2.91-2.3-5.36l-5.82-5.82q6.74-7.97 10.34-18.39 3.6-10.41 3.6-22.52z"/>
			<g id="&lt;Group&gt;">
				<path id="&lt;Compound Path&gt;" class="s1" d="m275.06 65.45q-1.71-1.7-1.71-4.29v-15.75h-15.75q-2.59 0-4.29-1.77-1.71-1.76-1.71-4.35 0-2.58 1.71-4.29 1.7-1.7 4.29-1.71h15.75v-15.75q0-2.47 1.83-4.23 1.82-1.77 4.17-1.77 2.59 0 4.29 1.71 1.71 1.7 1.71 4.29v15.75h15.75q2.47 0 4.29 1.77 1.83 1.76 1.83 4.35 0 2.47-1.83 4.23-1.82 1.77-4.29 1.77h-15.75v15.75q0 2.59-1.71 4.29-1.7 1.71-4.29 1.71-2.59 0-4.29-1.71z"/>
			</g>
			<path id="&lt;Compound Path&gt;" fill-rule="evenodd" class="s0" d="m729.27 146.86q-2.3-2.3-2.3-5.67v-103.7q0-3.52 2.3-5.75 2.29-2.22 5.67-2.22h27.72q17.31 0 30.79 7.66 13.48 7.66 20.99 21.22 7.5 13.55 7.5 30.86 0 17.32-7.5 30.95-7.51 13.63-20.99 21.29-13.48 7.66-30.79 7.66h-27.72q-3.38 0-5.67-2.3zm33.39-11.79q12.72 0 22.75-5.83 10.03-5.81 15.62-16.31 5.6-10.49 5.6-23.67 0-13.17-5.6-23.59-5.59-10.41-15.62-16.23-10.03-5.82-22.75-5.82h-19.76v91.45z"/>
			<path id="&lt;Compound Path&gt;" class="s0" d="m40.35 146.97q-2.3-2.29-2.29-5.66v-103.71q-0.01-3.52 2.29-5.74 2.3-2.22 5.67-2.23 3.52 0.01 5.74 2.23 2.22 2.22 2.23 5.74v103.71q-0.01 3.37-2.23 5.66-2.22 2.3-5.74 2.3-3.37 0-5.67-2.3z"/>
			<path id="&lt;Compound Path&gt;" class="s0" d="m76.65 147.05q-2.22-2.22-2.22-5.74v-103.71q0-3.52 2.22-5.74 2.22-2.22 5.59-2.23 1.69 0.01 3.37 0.85 1.69 0.84 2.76 2.06l69.61 88.85v-83.79q0-3.52 2.3-5.74 2.3-2.22 5.67-2.23 3.36 0.01 5.59 2.23 2.22 2.22 2.22 5.74v103.71q0 3.52-2.22 5.74-2.23 2.22-5.59 2.22-1.69 0-3.45-0.69-1.76-0.69-2.68-2.07l-69.61-88.84v83.64q0 3.37-2.22 5.66-2.23 2.3-5.75 2.3-3.37 0-5.59-2.22z"/>
			<path id="&lt;Compound Path&gt;" class="s0" d="m604.7 31.82q2.3 2.3 2.3 5.67v103.7q0 3.37-2.38 5.67-2.37 2.3-5.59 2.3-3.37 0-5.67-2.3-2.29-2.3-2.29-5.67v-76.13l-37.08 75.52q-2.6 3.98-6.89 3.98-5.05 0-7.35-4.74l-36.61-73.38v74.75q0 3.37-2.3 5.67-2.3 2.3-5.67 2.3-3.37 0-5.67-2.3-2.29-2.3-2.29-5.67v-103.7q0-3.37 2.29-5.67 2.3-2.3 5.67-2.3 4.6 0 7.05 4.29l45.49 91.15 44.28-91.15q2.44-4.29 7.04-4.29 3.37 0 5.67 2.3z"/>
			<path id="&lt;Compound Path&gt;" class="s0" d="m629.71 146.86q-2.3-2.3-2.3-5.67v-103.7q0-3.52 2.3-5.75 2.29-2.22 5.66-2.22h69.24q3.53 0 5.67 2.07 2.15 2.07 2.15 5.44 0 3.22-2.15 5.21-2.14 1.99-5.67 1.99h-61.27v37.22h43.96q3.37 0 5.6 2.07 2.22 2.07 2.22 5.28 0 3.22-2.22 5.29-2.23 2.07-5.6 2.07h-43.96v38.29h61.27q3.53 0 5.67 2 2.15 1.99 2.15 5.2 0 3.37-2.15 5.44-2.14 2.07-5.67 2.07h-69.24q-3.37 0-5.66-2.3z"/>
		</g>
	</g>
</svg>